<?xml version="1.0" encoding="UTF-8"?>
<svg xmlns="http://www.w3.org/2000/svg" version="1.1" viewBox="0 0 1741 604">
  <!-- Generator: Adobe Illustrator 30.3.0, SVG Export Plug-In . SVG Version: 2.1.3 Build 182)  -->
  <defs>
    <style>
      .st0, .st1, .st2, .st3 {
        fill: #e3479a;
      }

      .st1 {
        mix-blend-mode: color;
      }

      .st1, .st4, .st2 {
        isolation: isolate;
      }

      .st1, .st5, .st2, .st6, .st7, .st3 {
        fill-rule: evenodd;
      }

      .st5 {
        fill: #111827;
      }

      .st2 {
        opacity: .7;
      }

      .st8 {
        fill: #0a0a0a;
      }

      .st7 {
        fill: #f9fafb;
      }
    </style>
  </defs>
  <g class="st4">
    <g id="Layer_1">
      <path class="st5" d="M4362.9,4762.7v2134.6H829.4v-2134.6h3533.5Z"/>
      <path class="st1" d="M7896.4,4762.7v2134.6h-3533.5v-2134.6h3533.5Z"/>
      <path class="st2" d="M7896.4,4762.7v2134.6h-3533.5v-2134.6h3533.5Z"/>
      <path class="st3" d="M4389.8,4655.1v4475.6h-53.8v-4475.6h53.8Z"/>
      <path class="st3" d="M8028.8,6870.4v53.8H723.1v-53.8h7305.7Z"/>
      <path class="st7" d="M5555.7,6939.5v137h-713.7v-137h713.7Z"/>
      <path class="st0" d="M153.3,484.2c0-71.6,58.1-129.7,129.7-129.7s129.6,58.1,129.6,129.7-29.7,95.5-72.8,116.6v-70.5c0-31.4-25.5-56.8-56.8-56.8s-56.8,25.4-56.8,56.8v70.5c-43.2-21.1-72.9-65.4-72.9-116.6h0Z"/>
      <path class="st0" d="M203.5,122c62,35.8,83.3,115.1,47.5,177.1-35.8,62-115.1,83.3-177.1,47.5C29.5,320.9,6,273.1,9.4,225.2l61,35.2c27.2,15.7,61.9,6.4,77.6-20.8,15.7-27.2,6.4-61.9-20.8-77.6l-61-35.2c39.8-26.9,93-30.5,137.3-4.8h0Z"/>
      <path class="st0" d="M492,346.6c-62,35.8-141.3,14.5-177.1-47.5-35.7-62-14.5-141.3,47.5-177.1,44.4-25.7,97.6-22.1,137.4,4.8l-61.1,35.2c-27.1,15.7-36.4,50.4-20.8,77.6,15.7,27.2,50.5,36.5,77.6,20.8l61.1-35.2c3.3,47.9-20.2,95.7-64.6,121.4h0Z"/>
      <path d="M688.1,253.3c4.1,0,7.9-.7,11.4-2.2,3.5-1.4,6.6-3.4,9.1-6,2.6-2.6,4.6-5.7,6.1-9.2,1.4-3.6,2.1-7.5,2.1-11.7v-83.8h23.8v83.8c0,7.3-1.3,14-4,20.2-2.6,6.2-6.3,11.6-11,16.1-4.7,4.6-10.2,8.2-16.6,10.7-6.4,2.6-13.4,3.9-20.9,3.9s-14.7-1.3-21.1-3.8c-6.4-2.5-11.9-6-16.5-10.5-4.6-4.5-8.2-9.8-10.9-16.1-2.6-6.3-3.9-13.1-3.9-20.5v-83.8h23.7v83.8c0,4.2.7,8.1,2.2,11.7,1.5,3.5,3.4,6.6,5.9,9.2,2.5,2.6,5.6,4.6,9.1,6,3.6,1.5,7.4,2.2,11.5,2.2h0Z"/>
      <path d="M887.5,234.9c0,12.7-4.4,22.5-13.3,29.6-8.9,7.1-21.3,10.6-37.2,10.6s-16.1-1.1-22.9-3.2c-6.8-2.1-12.6-5.1-17.3-9-4.7-3.9-8.4-8.6-10.9-14.2-2.5-5.7-3.7-11.9-3.7-18.8h23.7c0,3.3.8,6.4,2.3,9.3,1.5,2.9,3.7,5.4,6.4,7.5,2.8,2,6.1,3.6,9.9,4.8,3.9,1.2,8,1.8,12.5,1.8,7.9,0,14.4-1.6,19.3-4.7,4.9-3.2,7.4-7.3,7.4-12.3s-2.3-8.8-6.9-11.9c-4.6-3.1-12.1-5.5-22.6-7.3-16.5-3.1-28.4-7.6-35.9-13.7-7.5-6.1-11.2-14.3-11.2-24.7,0-6,1.2-11.4,3.5-16.3,2.3-4.9,5.5-9.1,9.8-12.7,4.2-3.5,9.2-6.3,15-8.3,5.8-1.9,12.2-2.9,19.2-2.9s13.4,1,19.3,2.9c5.9,2,10.9,4.8,15.2,8.4,4.2,3.7,7.5,8,9.9,12.9,2.3,4.9,3.5,10.4,3.5,16.4h-23.7c0-5.6-2.3-10.1-6.8-13.6-4.5-3.5-10.3-5.3-17.6-5.3s-12.7,1.4-17,4.3c-4.3,2.9-6.5,6.6-6.5,11.2,0,4.6,2.4,8.4,7.1,11.3,4.7,2.9,12.6,5.4,23.6,7.7,8.1,1.6,15.1,3.5,20.9,5.8,5.8,2.3,10.6,5.1,14.3,8.4,3.7,3.2,6.4,6.9,8.1,11.2,1.7,4.3,2.6,9.3,2.6,14.8h0Z"/>
      <path d="M1022.1,162.2h-69.3v32.7h62.4v21.8h-62.4v34.6h69.3v21.8h-93.1v-132.7h93.1v21.8Z"/>
      <path d="M1203.4,140.4h19.4l29.7,94.7,27.7-94.7h25l-40.6,132.7h-22.8l-28.7-90.3-28.7,90.3h-22.7l-40.6-132.7h24.9l27.7,94.7,29.7-94.7Z"/>
      <path d="M1451.7,140.4v132.7h-23.8v-58.4h-63.3v58.4h-23.8v-132.7h23.8v52.5h63.3v-52.5h23.8Z"/>
      <path class="st6" d="M1485.3,273.1l51.7-132.7h23.7l51.5,132.7h-25.5l-9.7-25.7h-56.4l-9.7,25.7h-25.6ZM1528.8,225.6h40l-20-53.1-20,53.1Z"/>
      <path d="M1730,162.2h-41.6v110.9h-23.7v-110.9h-41.6v-21.8h106.9v21.8Z"/>
      <path class="st0" d="M765.7,324.5h30.6l46.9,149.4,43.7-149.4h39.4l-64.1,209.5h-35.9l-45.3-142.6-45.3,142.6h-36l-64-209.5h39.3l43.8,149.4,46.9-149.4Z"/>
      <path class="st3" d="M938.8,429.2c0-15.8,2.7-30.3,8.1-43.6,5.4-13.2,13-24.5,22.7-34,9.7-9.5,21.2-16.9,34.5-22.2,13.3-5.3,28-8,44.1-8s30.7,2.7,44.2,8c13.4,5.3,25,12.7,34.7,22.2,9.7,9.5,17.2,20.8,22.6,34,5.4,13.3,8.1,27.8,8.1,43.6s-2.7,29.8-8.2,43c-5.5,13.3-13.2,24.7-23,34.3-9.8,9.5-21.4,17-34.7,22.5-13.3,5.4-27.9,8.1-43.7,8.1s-30.8-2.7-44.1-8c-13.3-5.3-24.8-12.8-34.5-22.3-9.7-9.6-17.3-21-22.7-34.1-5.4-13.1-8.1-27.6-8.1-43.5h0ZM976.3,429.2c0,10.7,1.8,20.5,5.3,29.6,3.5,9.1,8.5,16.8,14.8,23.3,6.4,6.5,14,11.5,22.7,15.1,8.7,3.7,18.4,5.5,29.1,5.5,10.4,0,20-1.8,28.9-5.5,8.8-3.6,16.4-8.7,22.8-15.3,6.3-6.5,11.3-14.3,15-23.3,3.6-8.9,5.4-18.7,5.4-29.4s-1.8-20.7-5.3-29.6c-3.5-9-8.5-16.7-14.8-23.2-6.4-6.5-14-11.5-22.8-15.1-8.9-3.7-18.6-5.5-29.2-5.5s-20.4,1.8-29.1,5.5c-8.7,3.6-16.3,8.6-22.7,15.1-6.3,6.5-11.3,14.2-14.8,23.2-3.5,8.9-5.3,18.8-5.3,29.6h0Z"/>
      <path class="st3" d="M1351.6,393.6c0,15-3.9,27.8-11.7,38.3-7.9,10.5-18.8,18.1-32.7,22.7,7.1,6.5,13.3,14.5,18.8,24l31.8,55.4h-43.4l-22.2-38.5c-6.9-11.9-14.8-20.3-23.9-25.3-9.1-5-20.8-7.5-35.2-7.5h-6.5v71.3h-37.5v-209.5h85.3c11.9,0,22.5,1.6,32,4.9,9.5,3.2,17.5,7.8,24.2,13.9,6.7,6.1,11.8,13.3,15.5,21.7,3.7,8.5,5.5,18,5.5,28.6h0ZM1226.6,428.3h47.8c11.9,0,21.4-3.1,28.7-9.2,7.3-6.1,11-14.6,11-25.5s-3.5-19-10.6-25.3c-7.1-6.3-16.8-9.4-29.1-9.4h-47.8v69.4Z"/>
      <path class="st0" d="M1423.5,407.4h6.2c10.6,0,20.6-2.1,30-6.4s17.5-10.2,24.4-17.7c6.9-7.5,12.3-16.3,16.2-26.4,4-10.1,6-20.9,6-32.4h34.3c0,22.1-4.9,42-14.8,59.7-9.9,17.7-23.4,31.6-40.5,41.6,6.7,4.4,12.9,10.1,18.6,17.2,5.7,7.1,11.4,15.9,17,26.6l35,64.4h-42.8l-25.9-47.9c-4.6-8.5-9-15.7-13.3-21.4-4.3-5.7-8.7-10.3-13.4-13.7-4.7-3.5-9.8-5.9-15.2-7.2s-11.6-2-18.7-2h-3.1v92.2h-37.5v-209.5h37.5v82.9Z"/>
      <path class="st0" d="M1737.8,473.6c0,20-7,35.6-20.9,46.8-14,11.1-33.6,16.7-58.8,16.7s-25.4-1.7-36.1-5c-10.7-3.3-19.8-8.1-27.3-14.2-7.5-6.2-13.3-13.7-17.2-22.5-3.9-8.9-5.9-18.7-5.9-29.6h37.5c0,5.2,1.2,10.1,3.6,14.7,2.4,4.6,5.8,8.5,10.1,11.7,4.4,3.3,9.6,5.8,15.6,7.7,6.1,1.9,12.6,2.8,19.7,2.8,12.5,0,22.7-2.5,30.5-7.5,7.8-5,11.7-11.5,11.7-19.4s-3.6-13.9-10.9-18.7c-7.3-4.8-19.2-8.7-35.6-11.6-26.1-4.8-45-12-56.8-21.6-11.7-9.5-17.6-22.5-17.6-39s1.8-18,5.5-25.7c3.6-7.7,8.7-14.3,15.4-20,6.7-5.6,14.6-10,23.8-13.1,9.1-3.1,19.2-4.7,30.3-4.7s21.2,1.6,30.5,4.7c9.3,3.1,17.2,7.6,23.9,13.3,6.7,5.7,11.9,12.5,15.6,20.3,3.7,7.8,5.6,16.4,5.6,25.8h-37.5c0-8.7-3.5-15.9-10.6-21.4s-16.3-8.3-27.8-8.3c-11.1,0-20,2.2-26.9,6.7s-10.3,10.4-10.3,17.7,3.7,13.2,11.2,17.8c7.5,4.6,19.9,8.7,37.2,12.2,12.9,2.5,24,5.5,33.1,9.2,9.2,3.7,16.7,8,22.5,13.1,5.9,5.1,10.2,11.1,12.9,17.8,2.7,6.8,4,14.6,4,23.3h0Z"/>
      <polygon class="st8" points="250.4 123 315.5 123 348.1 66.6 315.5 10.2 250.4 10.2 217.8 66.6 250.4 123"/>
      <polygon class="st8" points="558.5 478.9 558.5 413.8 502.1 381.2 445.7 413.8 445.7 478.9 502.1 511.4 558.5 478.9"/>
      <polygon class="st8" points="120.2 478.9 120.2 413.8 63.8 381.2 7.4 413.8 7.4 478.9 63.8 511.4 120.2 478.9"/>
    </g>
  </g>
</svg>